<svg preserveAspectRatio="none" overflow="visible" style="display: block;" width="16" height="16.2963" viewBox="0 0 16 16.2963" fill="none" xmlns="http://www.w3.org/2000/svg">
<g id="form">
<path id="Vector" d="M2.2963 16.2963C1.84815 16.2963 1.46451 16.1367 1.14537 15.8176C0.826235 15.4985 0.666667 15.1148 0.666667 14.6667V3.25926C0.666667 2.81111 0.826235 2.42747 1.14537 2.10833C1.46451 1.7892 1.84815 1.62963 2.2963 1.62963H5.71852C5.89506 1.14074 6.19043 0.746914 6.60463 0.448148C7.01883 0.149383 7.48395 0 8 0C8.51605 0 8.98117 0.149383 9.39537 0.448148C9.80957 0.746914 10.1049 1.14074 10.2815 1.62963H13.7037C14.1519 1.62963 14.5355 1.7892 14.8546 2.10833C15.1738 2.42747 15.3333 2.81111 15.3333 3.25926V14.6667C15.3333 15.1148 15.1738 15.4985 14.8546 15.8176C14.5355 16.1367 14.1519 16.2963 13.7037 16.2963H2.2963ZM3.92593 13.037H9.62963V11.4074H3.92593V13.037ZM3.92593 9.77778H12.0741V8.14815H3.92593V9.77778ZM3.92593 6.51852H12.0741V4.88889H3.92593V6.51852ZM8.43796 2.475C8.5534 2.35957 8.61111 2.21358 8.61111 2.03704C8.61111 1.86049 8.5534 1.71451 8.43796 1.59907C8.32253 1.48364 8.17654 1.42593 8 1.42593C7.82346 1.42593 7.67747 1.48364 7.56204 1.59907C7.44661 1.71451 7.38889 1.86049 7.38889 2.03704C7.38889 2.21358 7.44661 2.35957 7.56204 2.475C7.67747 2.59043 7.82346 2.64815 8 2.64815C8.17654 2.64815 8.32253 2.59043 8.43796 2.475Z" fill="#1B64BB"/>
</g>
</svg>
